# AST/ASF file generated using VICON BodyLanguage
# -----------------------------------------------
:version 1.10
:name VICON
:units
  mass 1.0
  length 0.45
  angle deg
:documentation
   .ast/.asf automatically generated from VICON data using
   VICON BodyBuilder and BodyLanguage model FoxedUp or BRILLIANT.MOD
:root
   order TX TY TZ RX RY RZ
   axis XYZ
   position 0 0 0  
   orientation 0 0 0 
:bonedata
  begin
     id 1 
     name lhipjoint
     direction 0.734343 -0.627749 0.258209 
     length 2.5437 
     axis 0 0 0  XYZ
  end
  begin
     id 2 
     name lfemur
     direction 0.34202 -0.939693 0  
     length 6.7391  
     axis 0 0 20  XYZ
    dof rx ry rz
    limits (-160.0 20.0)
           (-70.0 70.0)
           (-60.0 70.0)
  end
  begin
     id 3 
     name ltibia
     direction 0.34202 -0.939693 0   
     length 7.21536   
     axis 0 0 20   XYZ
    dof rx
    limits (-10.0 170.0)
  end
  begin
     id 4 
     name lfoot
     direction 0.0489572 -0.134509 0.989702   
     length 1.61313   
     axis -90 7.62852e-016 20   XYZ
    dof rx rz
    limits (-45.0 90.0)
           (-70.0 20.0)
  end
  begin
     id 5 
     name ltoes
     direction 1.53451e-011 -4.21692e-011 1   
     length 0.823104   
     axis -90 7.62852e-016 20   XYZ
    dof rx
    limits (-90.0 20.0)
  end
  begin
     id 6 
     name rhipjoint
     direction -0.746398 -0.615468 0.253157   
     length 2.59446  
     axis 0 0 0  XYZ 
  end
  begin
     id 7 
     name rfemur
     direction -0.34202 -0.939693 0   
     length 6.7075   
     axis 0 0 -20   XYZ
    dof rx ry rz
    limits (-160.0 20.0)
           (-70.0 70.0)
           (-70.0 60.0)
  end
  begin
     id 8 
     name rtibia
     direction -0.34202 -0.939693 0   
     length 7.27262   
     axis 0 0 -20   XYZ
    dof rx
    limits (-10.0 170.0)
 end
 begin
     id 9 
     name rfoot
     direction -0.0455203 -0.125066 0.991104   
     length 1.91095  
     axis -90 -7.62852e-016 -20   XYZ
    dof rx rz
    limits (-45.0 90.0)
           (-20.0 70.0)
  end
  begin
     id 10 
     name rtoes
     direction -1.53601e-011 -4.21913e-011 1   
     length 0.969037   
     axis -90 -7.62852e-016 -20   XYZ
    dof rx
    limits (-90.0 20.0)
  end
  begin
     id 11 
     name lowerback
     direction 0.0181546 0.999122 -0.0377542   
     length 1.99916   
     axis 0 0 0   XYZ
    dof rx ry rz
    limits (-20.0 45.0)
           (-30.0 30.0)
           (-30.0 30.0)
  end
  begin
     id 12 
     name upperback
     direction 0.0203486 0.99589 0.0882534   
     length 1.951   
     axis 0 0 0   XYZ
    dof rx ry rz
    limits (-20.0 45.0)
           (-30.0 30.0)
           (-30.0 30.0)
  end
  begin
     id 13 
     name thorax
     direction 0.0131685 0.994241 0.106355   
     length 1.97461   
     axis 0 0 0   XYZ
    dof rx ry rz
    limits (-20.0 45.0)
           (-30.0 30.0)
           (-30.0 30.0)
  end
  begin
     id 14 
     name lowerneck
     direction -0.0281395 0.999325 0.023617   
     length 1.7959   
     axis 0 0 0   XYZ
    dof rx ry rz
    limits (-20.0 45.0)
           (-30.0 30.0)
           (-30.0 30.0)
  end
  begin
     id 15 
     name upperneck
     direction 0.0288721 0.991984 -0.123019   
     length 1.79917   
     axis 0 0 0   XYZ
    dof rx ry rz
    limits (-20.0 45.0)
           (-30.0 30.0)
           (-30.0 30.0)
  end
  begin
     id 16
     name head
     direction 0.0133797 0.998944 -0.0439492  
     length 1.80902  
     axis 0 0 0   XYZ
    dof rx ry rz
    limits (-20.0 45.0)
           (-30.0 30.0)
           (-30.0 30.0)
  end
  begin
     id 17 
     name lclavicle
     direction 0.919195 0.377107 0.113449  
     length 3.17815  
     axis 0 0 0   XYZ
    dof ry rz
    limits (-20.0 10.0)
           (0.0 20.0)
  end
  begin
     id 18 
     name lhumerus
     direction 1 -4.48959e-011 2.13129e-027   
     length 4.84137   
     axis 180 -30 -90   XYZ
    dof rx ry rz
    limits (-60.0 90.0)
           (-90.0 90.0)
           (-90.0 90.0)
  end
  begin
     id 19
     name lradius
     direction 1 -4.48957e-011 -6.30627e-028   
     length 3.2452   
     axis 180 -30 -90   XYZ
    dof rx
    limits (-10.0 170.0)
  end
  begin
     id 20
     name lwrist
     direction 1 -4.4901e-011 9.13299e-027   
     length 1.6226   
     axis -6.84618e-015 90 90   XYZ
    dof ry
    limits (-180.0 0.0)
 end
  begin
     id 21 
     name lhand
     direction 1 -4.48816e-011 1.82293e-026   
     length 0.521221   
     axis -1.16502e-014 90 90   XYZ
    dof rx rz
    limits (-90.0 90.0)
           (-45.0 45.0)
  end
  begin
     id 22 
     name lfingers
     direction 1 -4.49108e-011 3.65687e-026   
     length 0.420221   
     axis -2.33008e-014 90 90   XYZ
    dof rx
    limits (0.0 90.0)
  end
  begin
     id 23
     name lthumb
     direction 0.707107 -6.34943e-011 0.707107   
     length 0.603356   
     axis -90 45 5.69224e-014   XYZ
    dof rx rz
    limits (-45.0 45.0)
           (-45.0 45.0)
  end
  begin
     id 24 
     name rclavicle
     direction -0.90847 0.38596 0.160368   
     length 3.12973  
     axis 0 0 0   XYZ 
    dof ry rz
    limits (-10.0 20.0)
           (-20.0 0.0)
  end
  begin
     id 25 
     name rhumerus
     direction -1 -4.48974e-011 4.47268e-028  
     length 4.72284   
     axis 180 30 90   XYZ
    dof rx ry rz
    limits (-90.0 60.0)
           (-90.0 90.0)
           (-90.0 90.0)
  end
  begin
     id 26 
     name rradius
     direction -1 -4.48969e-011 3.43203e-027   
     length 3.23459   
     axis 180 30 90   XYZ
    dof rx
    limits (-10.0 170.0)
  end
  begin
     id 27 
     name rwrist
     direction -1 -4.48969e-011 9.12911e-027   
     length 1.6173   
     axis -6.84618e-015 -90 -90   XYZ
    dof ry
    limits (-180.0 0.0)
  end
  begin
     id 28
     name rhand
     direction -1 -4.49194e-011 1.83006e-026   
     length 0.307416   
     axis -1.16502e-014 -90 -90   XYZ
    dof rx rz
    limits (-90.0 90.0)
           (-45.0 45.0)
  end
  begin
     id 29
     name rfingers
     direction -1 -4.48423e-011 3.63103e-026   
     length 0.247847   
     axis -2.33008e-014 -90 -90   XYZ
    dof rx
    limits (0.0 90.0)
  end
  begin
     id 30
     name rthumb
     direction -0.707107 -6.34802e-011 0.707107   
     length 0.35586   
     axis -90 -45 -5.69224e-014   XYZ
    dof rx rz
    limits (-45.0 45.0)
           (-45.0 45.0)
  end
:hierarchy
  begin
    root lhipjoint rhipjoint lowerback
    lhipjoint lfemur
    lfemur ltibia
    ltibia lfoot
    lfoot ltoes
    rhipjoint rfemur
    rfemur rtibia
    rtibia rfoot
    rfoot rtoes
    lowerback upperback
    upperback thorax
    thorax lowerneck lclavicle rclavicle
    lowerneck upperneck
    upperneck head
    lclavicle lhumerus
    lhumerus lradius
    lradius lwrist
    lwrist lhand lthumb
    lhand lfingers
    rclavicle rhumerus
    rhumerus rradius
    rradius rwrist
    rwrist rhand rthumb
    rhand rfingers
  end

#!OML:ASF H:\Terrain\Patient Classification 1\Animal1\Tuesday\Animal1.ASF
:FULLY-SPECIFIED
:DEGREES
347
root 8.24756 16.6208 -4.10304 6.43297 0.965787 1.80388
lowerback 1.92398 -1.03805 -0.52622
upperback 4.77866 -1.38467 0.120528
thorax 3.85339 -0.711885 0.398056
lowerneck -8.15187 -0.0512921 -7.74119
upperneck 2.25753 0.39657 7.24089
head 2.17908 0.326633 3.83152
rclavicle 4.12478e-015 3.97569e-016
rhumerus -6.92412 -43.8527 -37.8129
rradius 63.9642
rwrist -45.1061
rhand -26.7458 28.8145
rfingers 7.12502
rthumb -0.174586 -1.16514
lclavicle 4.12478e-015 3.97569e-016
lhumerus -13.0596 43.5268 37.1908
lradius 73.7049
lwrist 2.03803
lhand -5.80232 53.1803
lfingers 7.12502
lthumb 20.0224 82.1687
rfemur -23.4647 6.46286 20.1874
rtibia 29.5626
rfoot -8.07849 -29.6269
rtoes 13.0852
lfemur -23.6337 3.96768 -18.7265
ltibia 34.5028
lfoot -8.26283 9.28203
ltoes -12.9412
348
root 8.22794 16.6216 -4.08514 6.43888 1.33133 2.14889
lowerback 1.92586 -1.06571 -0.792302
upperback 4.73502 -1.41714 0.0271556
thorax 3.8117 -0.735438 0.450836
lowerneck -8.03652 -0.106851 -7.41938
upperneck 2.27506 0.280526 7.25163
head 2.17097 0.270676 3.76538
rclavicle 7.40473e-015 -9.34288e-015
rhumerus -7.13245 -44.3951 -37.5201
rradius 64.3342
rwrist -44.9012
rhand -27.018 29.1396
rfingers 7.12502
rthumb -0.437449 -0.839671
lclavicle 7.40473e-015 -9.34288e-015
lhumerus -12.8457 43.4014 37.1704
lradius 74.2231
lwrist 2.20637
lhand -5.77375 53.2147
lfingers 7.12502
lthumb 20.0498 82.2002
rfemur -23.3524 6.13872 19.9413
rtibia 29.6002
rfoot -8.14065 -29.7744
rtoes 13.3988
lfemur -23.8588 4.00596 -19.065
ltibia 34.8072
lfoot -8.41265 9.40154
ltoes -15.9908
349
root 8.20944 16.6284 -4.06749 6.3238 1.74435 2.17717
lowerback 2.02139 -1.07527 -0.734496
upperback 4.76452 -1.43016 0.0200933
thorax 3.78699 -0.73957 0.412691
lowerneck -7.97739 -0.254419 -7.37077
upperneck 2.402 0.0553837 7.54701
head 2.22422 0.165893 3.85322
rclavicle 7.30534e-015 -1.98785e-015
rhumerus -7.39154 -44.9343 -37.1435
rradius 64.7433
rwrist -44.6816
rhand -27.0414 29.0728
rfingers 7.12502
rthumb -0.460068 -0.906456
lclavicle 7.30534e-015 -1.98785e-015
lhumerus -12.6113 43.1904 37.1794
lradius 74.7833
lwrist 2.46768
lhand -5.77642 53.3681
lfingers 7.12502
lthumb 20.0473 82.3539
rfemur -23.0238 5.9453 19.9996
rtibia 29.5213
rfoot -8.80607 -29.8417
rtoes 14.2088
lfemur -23.9453 3.98332 -19.0086
ltibia 35.1165
lfoot -9.09536 9.16279
ltoes -15.2409
350
root 8.19045 16.6341 -4.0549 6.29496 2.05369 1.7149
lowerback 2.07195 -1.03247 -0.211503
upperback 4.72668 -1.37894 0.157404
thorax 3.70881 -0.69777 0.263745
lowerneck -7.7272 -0.333579 -7.34755
upperneck 2.42519 -0.0812355 7.80041
head 2.19968 0.100673 3.93042
rclavicle 1.65488e-014 -8.15017e-015
rhumerus -7.83888 -45.1243 -36.4796
rradius 65.0776
rwrist -44.594
rhand -27.2911 28.6496
rfingers 7.12502
rthumb -0.701258 -1.32897
lclavicle 1.65488e-014 -8.15017e-015
lhumerus -12.3342 42.7862 37.1674
lradius 75.0982
lwrist 2.73119
lhand -5.92265 53.399
lfingers 7.12502
lthumb 19.9067 82.3995
rfemur -22.8294 5.94748 20.5752
rtibia 29.3895
rfoot -8.80984 -30.0106
rtoes 13.694
lfemur -24.134 4.05082 -18.4093
ltibia 35.3216
lfoot -9.57572 8.81915
ltoes -12.7435
351
root 8.16726 16.6318 -4.04559 6.3567 2.17358 1.39976
lowerback 2.08512 -0.886078 0.109791
upperback 4.6055 -1.18582 0.212913
thorax 3.56842 -0.591172 0.144951
lowerneck -7.26606 -0.358271 -6.99355
upperneck 2.2773 -0.170668 7.84641
head 2.06896 0.0530531 3.86405
rclavicle 1.0138e-014 -9.93923e-016
rhumerus -8.65478 -45.1989 -35.6199
rradius 65.4762
rwrist -44.6624
rhand -27.8149 28.7546
rfingers 7.12502
rthumb -1.20716 -1.22174
lclavicle 1.0138e-014 -9.93923e-016
lhumerus -11.9244 42.1609 37.2154
lradius 75.4189
lwrist 2.93524
lhand -6.47066 53.5655
lfingers 7.12502
lthumb 19.3799 82.6197
rfemur -22.7756 6.2449 20.9731
rtibia 29.1592
rfoot -8.72102 -30.3724
rtoes 14.6382
lfemur -24.4466 4.26635 -18.0038
ltibia 35.4281
lfoot -9.59687 8.81177
ltoes -12.4277
352
root 8.15006 16.6277 -4.03257 6.35791 2.27676 1.38573
lowerback 2.11554 -0.733503 0.267093
upperback 4.50656 -0.979276 0.108352
thorax 3.44336 -0.480883 -0.047113
lowerneck -6.86574 -0.532032 -6.60441
upperneck 2.22392 -0.461354 7.92328
head 1.99809 -0.0932201 3.79748
rclavicle -1.03865e-014 2.18663e-015
rhumerus -9.65296 -45.3486 -34.7636
rradius 65.9925
rwrist -44.9053
rhand -28.8411 29.2035
rfingers 7.12502
rthumb -2.19828 -0.764954
lclavicle -1.03865e-014 2.18663e-015
lhumerus -11.4363 41.5471 37.3561
lradius 75.9554
lwrist 3.00473
lhand -7.02556 54.0574
lfingers 7.12502
lthumb 18.8462 83.1644
rfemur -22.6079 6.38398 21.0475
rtibia 28.946
rfoot -8.88581 -30.5473
rtoes 15.3207
lfemur -24.5977 4.39557 -17.953
ltibia 35.3523
lfoot -9.75313 9.03983
ltoes -13.3954
353
root 8.14083 16.6249 -4.0169 6.35497 2.45635 1.27785
lowerback 2.10684 -0.678277 0.564951
upperback 4.46823 -0.905248 0.0881473
thorax 3.40382 -0.43369 -0.233693
lowerneck -6.69569 -0.734376 -6.68139
upperneck 2.27983 -0.754699 8.32351
head 2.0165 -0.233565 3.94358
rclavicle 2.08724e-015 3.37934e-015
rhumerus -10.2163 -45.4843 -34.1405
rradius 66.3947
rwrist -45.1238
rhand -29.0163 29.7517
rfingers 7.12502
rthumb -2.36744 -0.214873
lclavicle 2.08724e-015 3.37934e-015
lhumerus -11.1065 41.2484 37.4885
lradius 76.4383
lwrist 2.89148
lhand -6.97162 54.091
lfingers 7.12502
lthumb 18.8981 83.1929
rfemur -22.4352 6.35821 21.2042
rtibia 28.8631
rfoot -9.51731 -30.5136
rtoes 15.3091
lfemur -24.6006 4.40789 -17.8227
ltibia 35.0035
lfoot -9.91619 9.48458
ltoes -16.3365
354
root 8.13425 16.6301 -4.00798 6.47351 2.62549 1.30938
lowerback 2.05739 -0.714668 0.630162
upperback 4.47271 -0.955752 0.148061
thorax 3.43598 -0.457663 -0.209747
lowerneck -6.83567 -0.796795 -7.02953
upperneck 2.44963 -0.839705 9.14217
head 1.90949 -0.241742 3.87142
rclavicle 5.2181e-015 2.18663e-015
rhumerus -9.96233 -45.7974 -33.9499
rradius 66.5407
rwrist -45.3076
rhand -28.1676 30.165
rfingers 7.12502
rthumb -1.54775 0.190909
lclavicle 5.2181e-015 2.18663e-015
lhumerus -11.0512 41.191 37.4643
lradius 76.8173
lwrist 2.85262
lhand -6.72925 53.5091
lfingers 7.12502
lthumb 19.1312 82.5882
rfemur -22.507 6.28402 21.1811
rtibia 28.8471
rfoot -9.60809 -30.5432
rtoes 15.5535
lfemur -24.601 4.17465 -17.7889
ltibia 34.4174
lfoot -10.3622 9.58937
ltoes -14.2641
355
root 8.13136 16.6417 -3.99679 6.57907 2.79541 1.64281
lowerback 1.95177 -0.71063 0.444593
upperback 4.45138 -0.947712 0.0455101
thorax 3.47452 -0.457745 -0.212542
lowerneck -6.52681 -0.831417 -6.97977
upperneck 2.03649 -0.88375 9.01475
head 1.93029 -0.289029 4.24249
rclavicle 2.48481e-015 7.55382e-015
rhumerus -10.0305 -46.2477 -33.5781
rradius 66.622
rwrist -45.6867
rhand -27.8105 30.4165
rfingers 7.12502
rthumb -1.20286 0.440174
lclavicle 2.48481e-015 7.55382e-015
lhumerus -10.7455 40.9606 37.5172
lradius 77.1152
lwrist 2.78322
lhand -6.78422 53.1132
lfingers 7.12502
lthumb 19.0783 82.1975
rfemur -22.5732 6.04288 20.8432
rtibia 28.8824
rfoot -9.31337 -30.5785
rtoes 15.3797
lfemur -24.4001 3.62776 -17.991
ltibia 33.6213
lfoot -11.4583 9.25102
ltoes -4.8158
356
root 8.12811 16.6438 -3.97745 6.59995 2.9841 1.81976
lowerback 1.80251 -0.744213 0.344463
upperback 4.46544 -0.991378 -0.00682679
thorax 3.57375 -0.481544 -0.21309
lowerneck -6.22129 -0.838012 -6.74251
upperneck 1.82251 -0.914792 8.99986
head 1.80203 -0.310278 4.18237
rclavicle 8.94531e-016 -7.15625e-015
rhumerus -9.94296 -46.5291 -33.4351
rradius 66.6866
rwrist -45.9361
rhand -27.9949 30.9671
rfingers 7.12502
rthumb -1.38101 0.991873
lclavicle 8.94531e-016 -7.15625e-015
lhumerus -10.5302 40.7873 37.514
lradius 77.4244
lwrist 2.78641
lhand -7.26959 53.3311
lfingers 7.12502
lthumb 18.6115 82.4607
rfemur -22.4793 5.89486 20.6907
rtibia 28.9774
rfoot -10.1852 -30.5248
rtoes 16.5295
lfemur -24.0357 3.09285 -18.053
ltibia 32.6178
lfoot -12.1644 9.41751
ltoes -0.664605
357
root 8.12417 16.6396 -3.96293 6.6599 3.07822 1.9764
lowerback 1.70188 -0.74058 0.248461
upperback 4.45318 -0.985022 -0.0533594
thorax 3.61858 -0.480615 -0.208489
lowerneck -6.27516 -0.928595 -6.58263
upperneck 1.94284 -1.05434 9.02331
head 1.86258 -0.375976 4.15574
rclavicle 3.97569e-016 -4.96962e-015
rhumerus -9.8705 -46.6658 -33.3371
rradius 66.8103
rwrist -45.8538
rhand -28.7402 31.0828
rfingers 7.12502
rthumb -2.1008 1.11343
lclavicle 3.97569e-016 -4.96962e-015
lhumerus -10.4672 40.4385 37.3971
lradius 77.7929
lwrist 3.11368
lhand -7.8491 53.9226
lfingers 7.12502
lthumb 18.054 83.1047
rfemur -22.4744 5.89481 20.5517
rtibia 29.066
rfoot -11.1235 -30.4849
rtoes 18.197
lfemur -23.7652 2.68982 -18.166
ltibia 31.4767
lfoot -12.0205 10.3419
ltoes -4.89561
